<?xml version="1.0" encoding="UTF-8"?>
<svg version="1.1" xmlns="http://www.w3.org/2000/svg" width="96" height="96">
<path d="M0 0 C31.68 0 63.36 0 96 0 C96.0825 10.291875 96.165 20.58375 96.25 31.1875 C96.28641602 34.43102295 96.32283203 37.6745459 96.36035156 41.01635742 C96.3720342 43.58772113 96.38222702 46.15909222 96.390625 48.73046875 C96.40107849 49.39500565 96.41153198 50.05954254 96.42230225 50.74421692 C96.45170045 52.71234358 96.45335732 54.68082385 96.45410156 56.64916992 C96.46298401 57.7572551 96.47186646 58.86534027 96.48101807 60.00700378 C95.88850376 63.69375322 94.5711494 65.34428957 92 68 C88.88203827 69.55898087 85.5650062 69.16505275 82.14135742 69.17700195 C80.92401665 69.18685875 80.92401665 69.18685875 79.68208313 69.19691467 C76.98987745 69.21666431 74.29772759 69.22831387 71.60546875 69.23828125 C70.68680841 69.24235678 69.76814808 69.2464323 68.82164955 69.25063133 C63.95947112 69.27149905 59.09732097 69.2857978 54.23510742 69.29516602 C49.21112274 69.30623273 44.1875807 69.34063359 39.16375256 69.38033772 C35.30242587 69.40647399 31.44120512 69.41485518 27.57979774 69.41844749 C25.72782717 69.4233211 23.87586157 69.43495707 22.02397728 69.45348549 C19.4312361 69.47781399 16.83964637 69.47692368 14.24682617 69.4699707 C13.4824826 69.48278076 12.71813904 69.49559082 11.93063354 69.50878906 C8.23736715 69.47270806 6.18188008 69.11729636 3.04707336 67.09562683 C-0.27238736 63.69743355 -0.12280226 61.64673479 -0.11352539 56.98974609 C-0.11334412 55.07150024 -0.11334412 55.07150024 -0.11315918 53.11450195 C-0.10812319 51.75081331 -0.10295659 50.38712514 -0.09765625 49.0234375 C-0.09664917 47.78698486 -0.09564209 46.55053223 -0.09460449 45.27661133 C-0.08935902 40.6427315 -0.07539785 36.00886485 -0.0625 31.375 C-0.041875 21.02125 -0.02125 10.6675 0 0 Z M32 20 C29.27288076 22.11526556 28.49380826 23.9839666 27.796875 27.30859375 C27.6215625 28.13810547 27.44625 28.96761719 27.265625 29.82226562 C27.09546875 30.68529297 26.9253125 31.54832031 26.75 32.4375 C26.564375 33.29666016 26.37875 34.15582031 26.1875 35.04101562 C25.04959376 40.5375166 25.04959376 40.5375166 26 46 C26.33 44.35 26.66 42.7 27 41 C30.63 41.33 34.26 41.66 38 42 C38.33 43.32 38.66 44.64 39 46 C39.99 46 40.98 46 42 46 C40.67429579 37.45269656 38.48931859 29.27758852 36 21 C34.16299211 20.22757731 34.16299211 20.22757731 32 20 Z M48 20 C48 28.58 48 37.16 48 46 C48.66 46 49.32 46 50 46 C50 43.36 50 40.72 50 38 C51.216875 38.103125 52.43375 38.20625 53.6875 38.3125 C57.21229483 38.30625036 57.91197318 38.06367898 60.9375 35.875 C63.23581926 32.67128224 64 30.93377716 64 27 C62.19998191 22.83153706 61.19562288 22.09781144 57 20 C54.03 20 51.06 20 48 20 Z M70 20 C70 28.58 70 37.16 70 46 C70.33 46 70.66 46 71 46 C71 37.42 71 28.84 71 20 C70.67 20 70.34 20 70 20 Z " fill="#000000" transform="translate(0,27)"/>
<path d="M0 0 C1.21734077 -0.0098568 1.21734077 -0.0098568 2.45927429 -0.01991272 C5.15147997 -0.03966236 7.84362983 -0.05131192 10.53588867 -0.0612793 C11.45454901 -0.06535482 12.37320934 -0.06943035 13.31970787 -0.07362938 C18.1818863 -0.0944971 23.04403645 -0.10879584 27.90625 -0.11816406 C32.93023468 -0.12923078 37.95377672 -0.16363164 42.97760487 -0.20333576 C46.83893156 -0.22947204 50.70015231 -0.23785323 54.56155968 -0.24144554 C56.41353025 -0.24631914 58.26549585 -0.25795511 60.11738014 -0.27648354 C62.71012132 -0.30081203 65.30171105 -0.29992172 67.89453125 -0.29296875 C68.65887482 -0.30577881 69.42321838 -0.31858887 70.21072388 -0.33178711 C73.90399027 -0.2957061 75.95947734 0.05970559 79.09428406 2.08137512 C81.89615047 4.94969755 82.26639776 6.42127441 82.23901367 10.30981445 C82.23417969 11.51831055 82.23417969 11.51831055 82.22924805 12.7512207 C82.21667969 14.01385742 82.21667969 14.01385742 82.20385742 15.30200195 C82.1993457 16.15149414 82.19483398 17.00098633 82.19018555 17.8762207 C82.17838616 19.97651104 82.16045048 22.07676526 82.14135742 24.17700195 C78.83179292 25.8317842 75.1386455 25.31506065 71.50073242 25.30639648 C70.15912048 25.30902496 70.15912048 25.30902496 68.79040527 25.31170654 C65.82403645 25.31611984 62.85772689 25.31318889 59.89135742 25.30981445 C57.83634428 25.31048764 55.78133122 25.31145779 53.72631836 25.31271362 C49.41543827 25.31418989 45.10457886 25.31203832 40.79370117 25.30737305 C35.25842644 25.30167581 29.7232002 25.30495519 24.18792725 25.31094551 C19.94327426 25.31455304 15.69863282 25.31341165 11.45397949 25.31081772 C9.41255691 25.31014898 7.37113329 25.31097502 5.32971191 25.31329727 C2.48044033 25.31582691 -0.36875192 25.31197875 -3.21801758 25.30639648 C-4.49292053 25.30943283 -4.49292053 25.30943283 -5.7935791 25.31253052 C-11.63011473 25.29126588 -11.63011473 25.29126588 -13.85864258 24.17700195 C-13.96693572 21.28016037 -14.04608212 18.38739176 -14.10864258 15.48950195 C-14.1421582 14.67288086 -14.17567383 13.85625977 -14.21020508 13.01489258 C-14.27726274 8.87408188 -14.21711032 6.74951345 -11.96801758 3.1574707 C-8.21161127 -0.36937744 -4.91465117 0.0171531 0 0 Z M-1.85864258 11.17700195 C-1.85864258 11.83700195 -1.85864258 12.49700195 -1.85864258 13.17700195 C0.12135742 13.17700195 2.10135742 13.17700195 4.14135742 13.17700195 C4.14135742 12.51700195 4.14135742 11.85700195 4.14135742 11.17700195 C2.16135742 11.17700195 0.18135742 11.17700195 -1.85864258 11.17700195 Z M11.14135742 11.17700195 C11.14135742 11.83700195 11.14135742 12.49700195 11.14135742 13.17700195 C12.79135742 13.17700195 14.44135742 13.17700195 16.14135742 13.17700195 C16.14135742 12.51700195 16.14135742 11.85700195 16.14135742 11.17700195 C14.49135742 11.17700195 12.84135742 11.17700195 11.14135742 11.17700195 Z M42.14135742 11.17700195 C42.14135742 11.83700195 42.14135742 12.49700195 42.14135742 13.17700195 C51.38135742 13.17700195 60.62135742 13.17700195 70.14135742 13.17700195 C70.14135742 12.51700195 70.14135742 11.85700195 70.14135742 11.17700195 C60.90135742 11.17700195 51.66135742 11.17700195 42.14135742 11.17700195 Z " fill="#000000" transform="translate(13.858642578125,-0.177001953125)"/>
<path d="M0 0 C6.39655172 -0.36206897 6.39655172 -0.36206897 8.875 1.125 C10.47953174 3.79921957 10.87304813 5.88967921 11 9 C10.0625 11.375 10.0625 11.375 8 13 C5.24483314 13.33626052 2.79424197 13.18322898 0 13 C0 8.71 0 4.42 0 0 Z " fill="#000000" transform="translate(50,49)"/>
<path d="M0 0 C0.66 0 1.32 0 2 0 C2.50636607 1.74816858 3.00484619 3.49862263 3.5 5.25 C3.7784375 6.22453125 4.056875 7.1990625 4.34375 8.203125 C5 11 5 11 5 15 C2.36 15 -0.28 15 -3 15 C-2.44854729 9.76119922 -1.57077907 5.02649303 0 0 Z " fill="#000000" transform="translate(32,50)"/>
</svg>
