<?xml version="1.0" encoding="UTF-8"?>
<svg version="1.1" xmlns="http://www.w3.org/2000/svg" width="94" height="94">
<path d="M0 0 C9.80629043 5.23652656 17.32155097 13.00083756 21.421875 23.40625 C23.46167116 31.82147599 23.29676228 40.63371708 23.35546875 49.2578125 C22.69546875 49.2578125 22.03546875 49.2578125 21.35546875 49.2578125 C20.93587891 50.20140625 20.93587891 50.20140625 20.5078125 51.1640625 C15.21790781 62.45826415 8.2486299 69.8529342 -3.5625 74.375 C-16.22764137 78.00278447 -27.46726152 76.03652118 -38.8828125 69.94140625 C-47.2097737 64.86513994 -50.71692932 58.01938604 -54.64453125 49.2578125 C-55.30453125 49.2578125 -55.96453125 49.2578125 -56.64453125 49.2578125 C-56.59188083 45.79831707 -56.49663947 42.34117354 -56.39453125 38.8828125 C-56.38035156 37.91730469 -56.36617187 36.95179687 -56.3515625 35.95703125 C-55.93203496 23.45511052 -50.88131687 13.866792 -42.00390625 5.15625 C-30.57359172 -4.04098983 -13.36349953 -5.78208906 0 0 Z " fill="#373941" transform="translate(63.64453125,10.7421875)"/>
<path d="M0 0 C5.54899563 0.75668122 5.54899563 0.75668122 7.89111328 2.02026367 C11.93600442 3.89941951 16.48898644 3.326796 20.875 3.3125 C21.85597656 3.32861328 22.83695313 3.34472656 23.84765625 3.36132812 C29.51001799 3.36514888 32.95311414 2.73435756 38 0 C40.875 0.3125 40.875 0.3125 43 1 C42.96519531 1.74765625 42.93039063 2.4953125 42.89453125 3.265625 C42.85392578 4.74289063 42.85392578 4.74289063 42.8125 6.25 C42.77769531 7.22453125 42.74289063 8.1990625 42.70703125 9.203125 C42.75982035 12.03396685 42.75982035 12.03396685 44.484375 13.9609375 C47.59895549 18.15117208 46.54432135 24.03306771 46 29 C43.6019116 34.46764155 40.28785233 36.62958344 35 39 C31.5625 39.25 31.5625 39.25 29 39 C29.33 39.66 29.66 40.32 30 41 C30.23245299 44.59748668 30.39500287 48.1884991 30.51757812 51.79101562 C30.69367909 55.6486236 30.81525205 57.72287807 33 61 C25.56397808 63.14258259 18.65119593 63.41182782 11 62 C9.3584951 58.7169902 10.48111376 55.57454967 11 52 C10.13375 52.0825 9.2675 52.165 8.375 52.25 C3.34331999 51.87728296 0.56537741 49.80840404 -2.7109375 46.0234375 C-7 40.48591549 -7 40.48591549 -7 38 C-3.39280371 38.30918825 -2.22689031 38.74789965 0.25 41.5 C3.96785804 44.87987095 7.12213457 44.88310126 12 45 C12.33 43.02 12.66 41.04 13 39 C11.7625 39.1546875 11.7625 39.1546875 10.5 39.3125 C5.70658099 38.88451616 2.61077619 37.1404985 -1 34 C-4.27863156 28.77468095 -4.99245153 23.05200832 -4 17 C-3.51144531 16.20464844 -3.02289062 15.40929687 -2.51953125 14.58984375 C-0.70122623 11.4907789 -0.50843901 9.25358989 -0.3125 5.6875 C-0.24675781 4.61886719 -0.18101563 3.55023437 -0.11328125 2.44921875 C-0.07589844 1.64097656 -0.03851562 0.83273438 0 0 Z " fill="#EAEBEC" transform="translate(26,24)"/>
<path d="M0 0 C0.99 0.33 1.98 0.66 3 1 C3 1.66 3 2.32 3 3 C3.66 3 4.32 3 5 3 C4.45276317 6.37462715 3.9451 8.08235 2 11 C1.1632099 17.21615503 1.68912084 22.65987233 5 28 C8.9043824 31.2339329 12.96397188 32.50868018 18 33 C17.67 34.98 17.34 36.96 17 39 C9.45631068 39.92371706 9.45631068 39.92371706 5.94921875 37.69921875 C4.76813135 36.63952791 3.61771559 35.54418767 2.5078125 34.41015625 C0.9414865 32.74880321 0.9414865 32.74880321 -2 32 C-0.76056233 33.79898963 0.49196896 35.58896323 1.75 37.375 C2.44609375 38.37273437 3.1421875 39.37046875 3.859375 40.3984375 C7.39261996 44.69249068 10.60385628 45.26416222 16 46 C16 48.64 16 51.28 16 54 C12.04001544 55.31999485 10.93071712 54.33101664 7.25 52.5 C-2.50624101 47.35152583 -8.58128057 40.67162768 -12 30 C-13.40008656 22.87088279 -13.66105365 15.99124702 -10.078125 9.5390625 C-7.02099916 5.73264111 -4.06419589 2.70946392 0 0 Z " fill="#242221" transform="translate(21,30)"/>
<path d="M0 0 C1.13598633 0.00483398 1.13598633 0.00483398 2.29492188 0.00976562 C3.47344727 0.02233398 3.47344727 0.02233398 4.67578125 0.03515625 C5.47306641 0.03966797 6.27035156 0.04417969 7.09179688 0.04882812 C9.05732382 0.06059775 11.0228121 0.07853277 12.98828125 0.09765625 C12.98828125 0.42765625 12.98828125 0.75765625 12.98828125 1.09765625 C6.71828125 1.42765625 0.44828125 1.75765625 -6.01171875 2.09765625 C-6.67171875 3.41765625 -7.33171875 4.73765625 -8.01171875 6.09765625 C-9.7109375 7.1171875 -9.7109375 7.1171875 -11.69921875 7.91015625 C-18.87046408 11.23688919 -23.52288454 17.55940426 -28.53125 23.49609375 C-30.01171875 25.09765625 -30.01171875 25.09765625 -32.01171875 26.09765625 C-29.63946652 17.79477343 -24.68781389 11.46948115 -18.01171875 6.09765625 C-12.45069082 3.01326098 -6.4545321 -0.04853032 0 0 Z " fill="#999EAC" transform="translate(42.01171875,7.90234375)"/>
<path d="M0 0 C3.60719629 0.30918825 4.77310969 0.74789965 7.25 3.5 C10.96785804 6.87987095 14.12213457 6.88310126 19 7 C19 8.32 19 9.64 19 11 C17.35 11 15.7 11 14 11 C14 11.66 14 12.32 14 13 C15.65 13 17.3 13 19 13 C19 15.31 19 17.62 19 20 C18.67 20 18.34 20 18 20 C18 18.02 18 16.04 18 14 C16.700625 14.12375 16.700625 14.12375 15.375 14.25 C10.34331999 13.87728296 7.56537741 11.80840404 4.2890625 8.0234375 C0 2.48591549 0 2.48591549 0 0 Z " fill="#AEACAD" transform="translate(19,62)"/>
<path d="M0 0 C8.86716567 0.38552894 16.38581665 5.53275957 22.39453125 11.85546875 C25.6278893 16.17447986 27.80131572 21.09524277 30 26 C29.01 26 28.02 26 27 26 C26.608125 25.175 26.21625 24.35 25.8125 23.5 C20.58350803 13.4026362 15.2030405 7.68822157 4.76171875 2.859375 C3 2 3 2 0 0 Z " fill="#919BB1" transform="translate(55,9)"/>
<path d="M0 0 C0.99 0.33 1.98 0.66 3 1 C-8.53923676 12.71232532 -8.53923676 12.71232532 -13.5625 16.9375 C-16.3985552 19.34313518 -18.35382607 21.60476627 -20 25 C-20.33 24.34 -20.66 23.68 -21 23 C-18.62656881 17.82247471 -14.37589202 13.89141494 -10.5 9.8125 C-9.82324219 9.08869141 -9.14648438 8.36488281 -8.44921875 7.61914062 C-5.71878569 4.72445075 -3.32603935 2.21735957 0 0 Z " fill="#686C77" transform="translate(29,15)"/>
<path d="M0 0 C0.66 1.32 1.32 2.64 2 4 C-0.8640727 8.07579576 -3.32352264 10.2229386 -8 12 C-11.375 12.1875 -11.375 12.1875 -14 12 C-14 12.66 -14 13.32 -14 14 C-14.66 14 -15.32 14 -16 14 C-15.67 12.35 -15.34 10.7 -15 9 C-14.41992188 8.93683594 -13.83984375 8.87367187 -13.2421875 8.80859375 C-7.3262825 7.8811829 -4.59835273 6.24442504 -0.99609375 1.4609375 C-0.50302734 0.73777344 -0.50302734 0.73777344 0 0 Z " fill="#C8CACB" transform="translate(69,51)"/>
<path d="M0 0 C0.66 0.33 1.32 0.66 2 1 C1.3709375 1.47308594 0.741875 1.94617188 0.09375 2.43359375 C-7.56556835 8.35110928 -14.1593508 14.54736791 -19 23 C-19.33 22.34 -19.66 21.68 -20 21 C-17.00013097 12.8451836 -10.21435015 5.00099763 -2.5625 0.875 C-1.716875 0.58625 -0.87125 0.2975 0 0 Z " fill="#CACDD2" transform="translate(30,11)"/>
<path d="M0 0 C2.64662605 0.15123577 4.44278494 0.50001243 6.4453125 2.296875 C10 6.4 10 6.4 10 10 C10.66 10 11.32 10 12 10 C12.33 9.34 12.66 8.68 13 8 C13 8.99 13 9.98 13 11 C10.4375 11.5625 10.4375 11.5625 7 11 C4.25076109 8.2836861 2.01170292 5.29728821 0 2 C0 1.34 0 0.68 0 0 Z " fill="#EAE9E9" transform="translate(19,62)"/>
<path d="M0 0 C0.99 0.33 1.98 0.66 3 1 C2.50628906 1.41507813 2.01257812 1.83015625 1.50390625 2.2578125 C-3.12624871 6.71095952 -4.47758439 9.8486287 -4.8125 16.3125 C-4.81894531 17.50488281 -4.82539063 18.69726562 -4.83203125 19.92578125 C-5 23 -5 23 -7 26 C-7.00630314 22.78990116 -6.94641555 19.58423642 -6.875 16.375 C-6.87757813 15.47136719 -6.88015625 14.56773438 -6.8828125 13.63671875 C-6.74171426 8.80410411 -6.45336128 5.85961128 -2.9453125 2.3515625 C-1.97335938 1.57554688 -1.00140625 0.79953125 0 0 Z " fill="#312F2B" transform="translate(14,34)"/>
<path d="M0 0 C0.74958984 0.00451172 1.49917969 0.00902344 2.27148438 0.01367188 C4.11852383 0.02543646 5.96552213 0.04337135 7.8125 0.0625 C7.8125 0.3925 7.8125 0.7225 7.8125 1.0625 C7.07 1.206875 6.3275 1.35125 5.5625 1.5 C2.92531206 1.98687184 2.92531206 1.98687184 0.875 2.6875 C-1.1875 3.0625 -1.1875 3.0625 -4.125 2.375 C-7.33135346 1.69951455 -7.33135346 1.69951455 -9.875 4.0625 C-10.638125 4.7225 -11.40125 5.3825 -12.1875 6.0625 C-13.1775 5.7325 -14.1675 5.4025 -15.1875 5.0625 C-10.42824769 -0.0249766 -6.71147426 -0.07620014 0 0 Z " fill="#444C67" transform="translate(47.1875,8.9375)"/>
<path d="M0 0 C2.2477975 2.05233685 3.0022242 3.00667261 4 6 C5.49985609 7.66710346 5.49985609 7.66710346 7 9 C5.68 9.99 4.36 10.98 3 12 C2.01 11.34 1.02 10.68 0 10 C-0.29296875 7.6171875 -0.29296875 7.6171875 -0.1875 4.875 C-0.16042969 3.96492188 -0.13335937 3.05484375 -0.10546875 2.1171875 C-0.07066406 1.41851563 -0.03585938 0.71984375 0 0 Z " fill="#434A5B" transform="translate(79,29)"/>
<path d="M0 0 C0.33 0.99 0.66 1.98 1 3 C-0.45738102 3.98058352 -1.91593675 4.95942132 -3.375 5.9375 C-4.18710938 6.48277344 -4.99921875 7.02804688 -5.8359375 7.58984375 C-8 9 -8 9 -10 10 C-8.50006099 6.10015857 -4.53875449 0 0 0 Z " fill="#494C52" transform="translate(20,28)"/>
<path d="M0 0 C2.97 0 5.94 0 9 0 C9.33 1.32 9.66 2.64 10 4 C8.51882199 3.71872579 7.04006751 3.42466268 5.5625 3.125 C4.73878906 2.96257813 3.91507813 2.80015625 3.06640625 2.6328125 C2.38449219 2.42398437 1.70257813 2.21515625 1 2 C0.67 1.34 0.34 0.68 0 0 Z " fill="#303851" transform="translate(49,10)"/>
<path d="M0 0 C2.82572058 1.03293147 3.82978305 1.67952982 5.265625 4.3828125 C5.59046875 5.28773437 5.9153125 6.19265625 6.25 7.125 C6.58515625 8.03507812 6.9203125 8.94515625 7.265625 9.8828125 C7.62914063 10.93082031 7.62914063 10.93082031 8 12 C5 11 5 11 3.4375 8.25 C2.22948666 5.51883941 1.06644569 2.78916564 0 0 Z " fill="#6E778C" transform="translate(77,24)"/>
<path d="M0 0 C2.78211944 0.37596209 4.5879284 0.67318459 6.8125 2.4375 C8 4 8 4 8 6 C2.33846154 4.52307692 2.33846154 4.52307692 0.625 1.875 C0.41875 1.25625 0.2125 0.6375 0 0 Z " fill="#C0C1C2" transform="translate(19,62)"/>
<path d="M0 0 C0.99 0.33 1.98 0.66 3 1 C-0.96 4.465 -0.96 4.465 -5 8 C-5 5 -5 5 -2.5 2.3125 C-1.675 1.549375 -0.85 0.78625 0 0 Z " fill="#3A3B3C" transform="translate(14,34)"/>
<path d="M0 0 C0.99 0.66 1.98 1.32 3 2 C2.3503125 2.5878125 2.3503125 2.5878125 1.6875 3.1875 C-0.26366224 5.28319278 -1.59010162 7.51589333 -3 10 C-3.33 9.34 -3.66 8.68 -4 8 C-3.22265625 6.0546875 -3.22265625 6.0546875 -2.0625 3.875 C-1.49208984 2.78832031 -1.49208984 2.78832031 -0.91015625 1.6796875 C-0.60980469 1.12539063 -0.30945313 0.57109375 0 0 Z " fill="#BCBEBF" transform="translate(14,24)"/>
<path d="M0 0 C-7.42857143 4.42857143 -7.42857143 4.42857143 -11 5 C-7.6240914 0.45998499 -5.71800716 -1.77455395 0 0 Z " fill="#656D83" transform="translate(43,10)"/>
<path d="M0 0 C4.95 0 9.9 0 15 0 C15 0.33 15 0.66 15 1 C10.05 1 5.1 1 0 1 C0 0.67 0 0.34 0 0 Z " fill="#687292" transform="translate(39,6)"/>
<path d="M0 0 C0.33 0 0.66 0 1 0 C1 2.64 1 5.28 1 8 C0.67 8 0.34 8 0 8 C0 5.36 0 2.72 0 0 Z " fill="#211E18" transform="translate(87,48)"/>
<path d="M0 0 C0.33 0 0.66 0 1 0 C1 2.64 1 5.28 1 8 C0.67 8 0.34 8 0 8 C0 5.36 0 2.72 0 0 Z " fill="#18130D" transform="translate(6,48)"/>
<path d="M0 0 C0.33 0 0.66 0 1 0 C1 2.64 1 5.28 1 8 C0.67 8 0.34 8 0 8 C0 5.36 0 2.72 0 0 Z " fill="#1C1D20" transform="translate(87,39)"/>
<path d="M0 0 C0.33 0 0.66 0 1 0 C1 2.64 1 5.28 1 8 C0.67 8 0.34 8 0 8 C0 5.36 0 2.72 0 0 Z " fill="#323227" transform="translate(6,39)"/>
<path d="M0 0 C1.98 0 3.96 0 6 0 C6 0.33 6 0.66 6 1 C4.02 1 2.04 1 0 1 C0 0.67 0 0.34 0 0 Z " fill="#D1CFCF" transform="translate(37,87)"/>
<path d="M0 0 C1.65 0 3.3 0 5 0 C5 0.33 5 0.66 5 1 C3.35 1 1.7 1 0 1 C0 0.67 0 0.34 0 0 Z " fill="#D3CDC9" transform="translate(51,87)"/>
<path d="M0 0 C0.66 0.33 1.32 0.66 2 1 C1.01 1 0.02 1 -1 1 C-0.67 0.67 -0.34 0.34 0 0 Z " fill="#D9DADE" transform="translate(20,15)"/>
<path d="M0 0 C4 1 4 1 4 1 Z " fill="#676D8E" transform="translate(55,7)"/>
<path d="M0 0 C3 1 3 1 3 1 Z " fill="#A49C9A" transform="translate(46,88)"/>
<path d="M0 0 C3 1 3 1 3 1 Z " fill="#676B69" transform="translate(57,86)"/>
<path d="M0 0 C3 1 3 1 3 1 Z " fill="#464644" transform="translate(34,86)"/>
<path d="" fill="#4D525F" transform="translate(0,0)"/>
<path d="" fill="#7A7975" transform="translate(0,0)"/>
<path d="" fill="#929292" transform="translate(0,0)"/>
<path d="M0 0 C3 1 3 1 3 1 Z " fill="#ABAFC0" transform="translate(35,7)"/>
<path d="M0 0 C2 1 2 1 2 1 Z " fill="#23120F" transform="translate(60,85)"/>
<path d="M0 0 C2 1 2 1 2 1 Z " fill="#1D1C0F" transform="translate(32,85)"/>
<path d="M0 0 C2 1 2 1 2 1 Z " fill="#21201B" transform="translate(63,84)"/>
<path d="M0 0 C2 1 2 1 2 1 Z " fill="#26110D" transform="translate(29,84)"/>
<path d="M0 0 C2 1 2 1 2 1 Z " fill="#322C28" transform="translate(65,83)"/>
<path d="M0 0 C2 1 2 1 2 1 Z " fill="#191512" transform="translate(27,83)"/>
<path d="M0 0 C2 1 2 1 2 1 Z " fill="#161512" transform="translate(68,81)"/>
<path d="" fill="#312C13" transform="translate(0,0)"/>
<path d="" fill="#3D342C" transform="translate(0,0)"/>
<path d="" fill="#2B241A" transform="translate(0,0)"/>
<path d="" fill="#402922" transform="translate(0,0)"/>
<path d="" fill="#2B2724" transform="translate(0,0)"/>
<path d="" fill="#38312B" transform="translate(0,0)"/>
<path d="" fill="#362B1F" transform="translate(0,0)"/>
<path d="" fill="#5A6773" transform="translate(0,0)"/>
<path d="" fill="#6D7584" transform="translate(0,0)"/>
<path d="" fill="#909294" transform="translate(0,0)"/>
<path d="" fill="#697295" transform="translate(0,0)"/>
<path d="" fill="#B4B7BD" transform="translate(0,0)"/>
<path d="" fill="#BCD4D4" transform="translate(0,0)"/>
<path d="" fill="#5F74A5" transform="translate(0,0)"/>
<path d="" fill="#CFD2D3" transform="translate(0,0)"/>
<path d="M0 0 C2 1 2 1 2 1 Z " fill="#828DA4" transform="translate(69,13)"/>
<path d="M0 0 C2 1 2 1 2 1 Z " fill="#D5D8DB" transform="translate(24,12)"/>
<path d="M0 0 C2 1 2 1 2 1 Z " fill="#C5C8CE" transform="translate(26,11)"/>
<path d="M0 0 C2 1 2 1 2 1 Z " fill="#8996B9" transform="translate(64,10)"/>
<path d="M0 0 C2 1 2 1 2 1 Z " fill="#CBCFD9" transform="translate(28,10)"/>
<path d="M0 0 C2 1 2 1 2 1 Z " fill="#738393" transform="translate(62,9)"/>
<path d="M0 0 C2 1 2 1 2 1 Z " fill="#B0B4BF" transform="translate(30,9)"/>
<path d="M0 0 C2 1 2 1 2 1 Z " fill="#878FAC" transform="translate(59,8)"/>
<path d="M0 0 C2 1 2 1 2 1 Z " fill="#A9B7C3" transform="translate(33,8)"/>
<path d="" fill="#48241F" transform="translate(0,0)"/>
<path d="" fill="#1A1411" transform="translate(0,0)"/>
<path d="" fill="#1A1714" transform="translate(0,0)"/>
<path d="" fill="#252118" transform="translate(0,0)"/>
<path d="" fill="#2A2A26" transform="translate(0,0)"/>
<path d="" fill="#252612" transform="translate(0,0)"/>
<path d="" fill="#221C1C" transform="translate(0,0)"/>
<path d="" fill="#2C2623" transform="translate(0,0)"/>
<path d="" fill="#312C15" transform="translate(0,0)"/>
<path d="" fill="#402C1B" transform="translate(0,0)"/>
<path d="" fill="#2D1012" transform="translate(0,0)"/>
<path d="" fill="#3B3419" transform="translate(0,0)"/>
<path d="" fill="#282320" transform="translate(0,0)"/>
<path d="" fill="#36322F" transform="translate(0,0)"/>
<path d="" fill="#2C2824" transform="translate(0,0)"/>
<path d="" fill="#3D2B24" transform="translate(0,0)"/>
<path d="" fill="#2E2912" transform="translate(0,0)"/>
<path d="" fill="#322B26" transform="translate(0,0)"/>
<path d="" fill="#341916" transform="translate(0,0)"/>
<path d="" fill="#2C2923" transform="translate(0,0)"/>
<path d="" fill="#281100" transform="translate(0,0)"/>
<path d="" fill="#2A1D19" transform="translate(0,0)"/>
<path d="" fill="#0F0A0A" transform="translate(0,0)"/>
<path d="" fill="#231D1A" transform="translate(0,0)"/>
<path d="" fill="#312A23" transform="translate(0,0)"/>
<path d="" fill="#29241F" transform="translate(0,0)"/>
<path d="" fill="#C2C4CB" transform="translate(0,0)"/>
<path d="" fill="#6C769F" transform="translate(0,0)"/>
<path d="" fill="#767FA6" transform="translate(0,0)"/>
<path d="" fill="#C9C8CB" transform="translate(0,0)"/>
<path d="" fill="#989AB6" transform="translate(0,0)"/>
<path d="" fill="#BDC0C1" transform="translate(0,0)"/>
<path d="" fill="#7782B0" transform="translate(0,0)"/>
<path d="" fill="#5C6C88" transform="translate(0,0)"/>
<path d="" fill="#3D4D6B" transform="translate(0,0)"/>
<path d="" fill="#C8CCCF" transform="translate(0,0)"/>
<path d="" fill="#4A5773" transform="translate(0,0)"/>
<path d="" fill="#D8DADD" transform="translate(0,0)"/>
<path d="" fill="#4A6E84" transform="translate(0,0)"/>
<path d="" fill="#D8DADE" transform="translate(0,0)"/>
<path d="" fill="#707990" transform="translate(0,0)"/>
<path d="" fill="#78879C" transform="translate(0,0)"/>
<path d="" fill="#91B0C4" transform="translate(0,0)"/>
<path d="" fill="#D2D2D2" transform="translate(0,0)"/>
<path d="" fill="#C7CBD6" transform="translate(0,0)"/>
<path d="" fill="#898EA2" transform="translate(0,0)"/>
<path d="" fill="#8F9EAB" transform="translate(0,0)"/>
</svg>
