<?xml version="1.0" encoding="UTF-8"?>
<svg xmlns="http://www.w3.org/2000/svg" xmlns:xlink="http://www.w3.org/1999/xlink" width="96px" height="100px" viewBox="0 0 96 96" version="1.1">
<g id="surface1">
<path style=" stroke:none;fill-rule:nonzero;fill:rgb(30.588236%,47.843137%,70.980394%);fill-opacity:1;" d="M 48 69.359375 C 20.636719 69.359375 0 60.40625 0 48 C 0 35.59375 20.636719 26.398438 48 26.398438 C 75.363281 26.398438 96 35.59375 96 48 C 96 60.40625 75.363281 69.359375 48 69.359375 Z M 48 33.4375 C 24.652344 33.4375 6.898438 41.273438 6.898438 48.152344 C 6.898438 55.027344 24.652344 62.5625 48 62.5625 C 71.347656 62.5625 89.101562 54.726562 89.101562 47.847656 C 89.101562 40.972656 71.347656 33.4375 48 33.4375 Z M 48 33.4375 "/>
<path style=" stroke:none;fill-rule:nonzero;fill:rgb(30.588236%,47.843137%,70.980394%);fill-opacity:1;" d="M 29.765625 91.199219 C 29.761719 91.199219 29.765625 91.199219 29.765625 91.199219 C 27.53125 91.199219 25.492188 90.679688 23.699219 89.660156 C 20.769531 87.988281 18.667969 85.03125 17.621094 81.109375 C 14.871094 70.832031 19.308594 53.554688 28.933594 37.085938 C 40.222656 17.777344 55.21875 4.808594 66.238281 4.808594 C 68.46875 4.808594 70.507812 5.324219 72.300781 6.347656 C 75.226562 8.015625 77.328125 10.96875 78.375 14.886719 C 81.128906 25.164062 76.691406 42.445312 67.0625 58.914062 C 55.777344 78.226562 40.789062 91.199219 29.765625 91.199219 Z M 66.238281 12.007812 C 59.304688 12.007812 46.054688 22.070312 35.148438 40.71875 C 25.253906 57.652344 22.351562 71.699219 24.578125 79.246094 C 25.179688 81.285156 26.03125 82.699219 27.269531 83.40625 C 32.933594 86.640625 48.410156 76.566406 60.847656 55.285156 C 70.746094 38.347656 73.953125 24.601562 71.421875 16.753906 C 70.769531 14.734375 69.972656 13.308594 68.734375 12.605469 C 68.03125 12.203125 67.214844 12.007812 66.238281 12.007812 Z M 66.238281 12.007812 "/>
<path style=" stroke:none;fill-rule:nonzero;fill:rgb(30.588236%,47.843137%,70.980394%);fill-opacity:1;" d="M 66.238281 91.191406 C 55.203125 91.191406 40.214844 78.222656 28.933594 58.914062 C 19.308594 42.445312 14.871094 25.164062 17.621094 14.890625 C 18.667969 10.96875 20.769531 8.011719 23.695312 6.34375 C 25.492188 5.320312 27.53125 4.800781 29.761719 4.800781 C 40.789062 4.800781 55.777344 17.773438 67.0625 37.085938 C 76.6875 53.550781 81.125 70.832031 78.375 81.113281 C 77.324219 85.03125 75.222656 87.984375 72.300781 89.652344 C 70.507812 90.675781 68.46875 91.191406 66.238281 91.191406 Z M 29.761719 12 C 28.78125 12 27.96875 12.195312 27.265625 12.59375 C 26.027344 13.300781 25.167969 14.710938 24.574219 16.753906 C 22.347656 24.453125 25.25 38.347656 35.144531 55.285156 C 46.042969 73.929688 59.296875 83.992188 66.234375 83.992188 C 67.214844 83.992188 68.03125 83.796875 68.734375 83.394531 C 69.96875 82.695312 70.851562 81.292969 71.417969 79.246094 C 73.496094 71.699219 70.742188 57.648438 60.84375 40.714844 C 49.945312 22.066406 36.695312 12 29.761719 12 Z M 29.761719 12 "/>
<path style=" stroke:none;fill-rule:nonzero;fill:rgb(54.509807%,71.764708%,94.117647%);fill-opacity:1;" d="M 56.398438 48 C 56.398438 52.644531 52.644531 56.398438 48 56.398438 C 43.355469 56.398438 39.601562 52.644531 39.601562 48 C 39.601562 43.355469 43.355469 39.601562 48 39.601562 C 52.644531 39.601562 56.398438 43.355469 56.398438 48 Z M 56.398438 48 "/>
<path style=" stroke:none;fill-rule:nonzero;fill:rgb(30.588236%,47.843137%,70.980394%);fill-opacity:1;" d="M 48 57.601562 C 42.707031 57.601562 38.398438 53.292969 38.398438 48 C 38.398438 42.707031 42.707031 38.398438 48 38.398438 C 53.292969 38.398438 57.601562 42.707031 57.601562 48 C 57.601562 53.292969 53.292969 57.601562 48 57.601562 Z M 48 40.800781 C 44.03125 40.800781 40.800781 44.03125 40.800781 48 C 40.800781 51.96875 44.03125 55.199219 48 55.199219 C 51.96875 55.199219 55.199219 51.96875 55.199219 48 C 55.199219 44.03125 51.96875 40.800781 48 40.800781 Z M 48 40.800781 "/>
<path style=" stroke:none;fill-rule:nonzero;fill:rgb(54.509807%,71.764708%,94.117647%);fill-opacity:1;" d="M 48 67.363281 C 22.429688 67.363281 2.398438 58.859375 2.398438 48 C 2.398438 37.140625 22.429688 28.636719 48 28.636719 C 73.570312 28.636719 93.601562 37.140625 93.601562 48 C 93.601562 58.859375 73.570312 67.363281 48 67.363281 Z M 48 31.035156 C 24.582031 31.035156 4.800781 38.804688 4.800781 48 C 4.800781 57.195312 24.582031 64.964844 48 64.964844 C 71.417969 64.964844 91.199219 57.195312 91.199219 48 C 91.199219 38.804688 71.417969 31.035156 48 31.035156 Z M 48 31.035156 "/>
<path style=" stroke:none;fill-rule:nonzero;fill:rgb(54.509807%,71.764708%,94.117647%);fill-opacity:1;" d="M 29.765625 88.800781 C 29.761719 88.800781 29.765625 88.800781 29.765625 88.800781 C 27.953125 88.800781 26.3125 88.386719 24.886719 87.574219 C 22.496094 86.207031 20.832031 83.824219 19.9375 80.488281 C 17.34375 70.800781 21.6875 54.238281 31 38.292969 C 41.710938 19.992188 56.199219 7.207031 66.238281 7.207031 C 68.046875 7.207031 69.6875 7.621094 71.113281 8.433594 C 73.503906 9.796875 75.164062 12.175781 76.0625 15.507812 C 78.65625 25.199219 74.3125 41.761719 64.992188 57.707031 C 54.289062 76.011719 39.804688 88.800781 29.765625 88.800781 Z M 66.238281 9.605469 C 57.15625 9.605469 43.210938 22.179688 33.078125 39.507812 C 24.207031 54.6875 19.859375 70.90625 22.257812 79.871094 C 22.980469 82.566406 24.265625 84.453125 26.078125 85.492188 C 27.136719 86.09375 28.375 86.398438 29.761719 86.398438 C 38.847656 86.398438 52.789062 73.824219 62.914062 56.492188 C 71.789062 41.3125 76.140625 25.089844 73.738281 16.128906 C 73.019531 13.441406 71.734375 11.550781 69.921875 10.519531 C 68.863281 9.914062 67.625 9.605469 66.238281 9.605469 Z M 66.238281 9.605469 "/>
<path style=" stroke:none;fill-rule:nonzero;fill:rgb(54.509807%,71.764708%,94.117647%);fill-opacity:1;" d="M 66.238281 88.792969 C 56.1875 88.789062 41.699219 76.007812 31.003906 57.707031 C 21.6875 41.761719 17.34375 25.199219 19.9375 15.511719 C 20.832031 12.175781 22.496094 9.792969 24.886719 8.425781 C 26.3125 7.613281 27.953125 7.199219 29.761719 7.199219 C 39.804688 7.199219 54.289062 19.988281 64.988281 38.292969 C 74.308594 54.234375 78.652344 70.796875 76.054688 80.492188 C 75.164062 83.824219 73.5 86.207031 71.113281 87.566406 C 69.6875 88.378906 68.046875 88.792969 66.238281 88.792969 Z M 29.761719 9.601562 C 28.375 9.601562 27.132812 9.90625 26.074219 10.507812 C 24.261719 11.546875 22.976562 13.433594 22.253906 16.128906 C 19.859375 25.09375 24.207031 41.3125 33.074219 56.492188 C 43.199219 73.816406 57.148438 86.390625 66.238281 86.394531 C 67.625 86.394531 68.867188 86.085938 69.925781 85.480469 C 71.734375 84.449219 73.019531 82.558594 73.738281 79.871094 C 76.136719 70.90625 71.789062 54.683594 62.917969 39.507812 C 52.789062 22.179688 38.847656 9.601562 29.761719 9.601562 Z M 29.761719 9.601562 "/>
</g>
</svg>
