<?xml version="1.0" encoding="UTF-8"?>
<svg xmlns="http://www.w3.org/2000/svg" xmlns:xlink="http://www.w3.org/1999/xlink" width="96px" height="96px" viewBox="0 0 96 96" version="1.1">
<g id="surface1">
<path style=" stroke:none;fill-rule:nonzero;fill:rgb(100%,100%,100%);fill-opacity:1;" d="M 47.648438 96 C 22.070312 95.824219 -0.171875 74.59375 0 47.625 C 0.167969 21.671875 21.730469 -0.175781 48.417969 0 C 74.351562 0.171875 96.230469 21.699219 96 48.074219 C 96.214844 74.207031 74.226562 96.183594 47.648438 96 Z M 47.648438 96 C 22.070312 95.824219 -0.171875 74.59375 0 47.625 C 0.167969 21.671875 21.730469 -0.175781 48.417969 0 C 74.351562 0.171875 96.230469 21.699219 96 48.074219 C 96.214844 74.207031 74.226562 96.183594 47.648438 96 Z M 47.648438 96 "/>
<path style=" stroke:none;fill-rule:nonzero;fill:rgb(28.627452%,63.921571%,16.862746%);fill-opacity:1;" d="M 47.695312 89.625 C 25.511719 89.472656 6.226562 71.0625 6.375 47.675781 C 6.519531 25.167969 25.222656 6.222656 48.359375 6.375 C 70.851562 6.523438 89.824219 25.195312 89.625 48.0625 C 89.808594 70.726562 70.742188 89.785156 47.695312 89.625 Z M 47.695312 89.625 C 25.511719 89.472656 6.226562 71.0625 6.375 47.675781 C 6.519531 25.167969 25.222656 6.222656 48.359375 6.375 C 70.851562 6.523438 89.824219 25.195312 89.625 48.0625 C 89.808594 70.726562 70.742188 89.785156 47.695312 89.625 Z M 47.695312 89.625 "/>
<path style=" stroke:none;fill-rule:nonzero;fill:rgb(100%,100%,100%);fill-opacity:1;" d="M 63.496094 47.984375 C 63.390625 49.96875 61.65625 51.613281 59.949219 51.328125 C 59.941406 51.328125 59.933594 51.328125 59.925781 51.328125 C 58.03125 51.328125 56.496094 49.796875 56.496094 47.90625 C 56.558594 46.007812 58.132812 44.515625 60.03125 44.546875 C 61.921875 44.554688 63.601562 46.152344 63.496094 47.984375 Z M 33.074219 67.207031 C 33.789062 67.226562 34.503906 67.214844 35.324219 67.214844 L 35.324219 72.382812 C 30.210938 73.246094 26 71.796875 24.96875 67.472656 C 24.613281 65.882812 24.394531 64.269531 24.316406 62.640625 C 24.207031 60.917969 24.394531 59.179688 24.265625 57.460938 C 23.902344 52.730469 23.289062 51.117188 18.75 50.890625 L 18.75 45.003906 C 19.074219 44.929688 19.40625 44.875 19.738281 44.835938 C 22.226562 44.714844 23.273438 43.949219 23.832031 41.5 C 24.085938 40.121094 24.234375 38.726562 24.277344 37.328125 C 24.476562 34.621094 24.40625 31.871094 24.855469 29.210938 C 25.507812 25.359375 27.898438 23.488281 31.847656 23.28125 C 32.96875 23.21875 34.097656 23.269531 35.371094 23.269531 L 35.371094 28.554688 C 34.847656 28.589844 34.367188 28.667969 33.890625 28.652344 C 30.671875 28.554688 30.503906 29.652344 30.269531 32.3125 C 30.125 33.984375 30.324219 35.683594 30.210938 37.359375 C 30.09375 39.027344 29.871094 40.6875 29.542969 42.328125 C 29.082031 44.703125 27.617188 46.472656 25.59375 47.972656 C 29.523438 50.53125 29.972656 54.503906 30.226562 58.542969 C 30.363281 60.710938 30.300781 62.894531 30.523438 65.054688 C 30.695312 66.730469 31.34375 67.15625 33.074219 67.207031 Z M 36.390625 44.546875 C 36.410156 44.546875 36.429688 44.546875 36.449219 44.546875 C 38.328125 44.578125 39.828125 46.125 39.796875 48.007812 C 39.796875 48.066406 39.796875 48.128906 39.792969 48.191406 C 39.6875 50.027344 38.113281 51.429688 36.273438 51.324219 C 36.199219 51.328125 36.125 51.324219 36.050781 51.320312 C 34.179688 51.230469 32.738281 49.636719 32.832031 47.765625 C 32.925781 45.894531 34.519531 44.453125 36.390625 44.546875 Z M 48.101562 44.546875 C 50.160156 44.53125 51.523438 45.863281 51.535156 47.894531 C 51.546875 49.980469 50.25 51.316406 48.207031 51.324219 C 46.132812 51.335938 44.765625 50.019531 44.753906 48 C 44.746094 47.898438 44.746094 47.792969 44.75 47.691406 C 44.804688 45.898438 46.308594 44.488281 48.101562 44.546875 Z M 72.628906 41.972656 C 73.175781 44.015625 74.238281 44.730469 76.390625 44.828125 C 76.742188 44.847656 77.09375 44.90625 77.574219 44.960938 L 77.574219 50.84375 C 77.3125 50.929688 77.046875 50.996094 76.773438 51.035156 C 73.890625 51.214844 72.578125 52.398438 72.289062 55.285156 C 72.101562 57.132812 72.117188 58.996094 71.988281 60.847656 C 71.9375 62.878906 71.75 64.90625 71.4375 66.914062 C 70.699219 70.554688 68.429688 72.367188 64.675781 72.589844 C 63.46875 72.660156 62.25 72.601562 60.949219 72.601562 L 60.949219 67.34375 C 61.648438 67.296875 62.269531 67.238281 62.886719 67.222656 C 65.128906 67.171875 65.921875 66.445312 66.035156 64.21875 C 66.15625 61.773438 66.207031 59.324219 66.316406 56.875 C 66.476562 53.335938 67.445312 50.175781 70.742188 47.972656 C 68.855469 46.625 67.339844 44.996094 66.949219 42.800781 C 66.472656 40.140625 66.320312 37.421875 66.066406 34.722656 C 65.941406 33.371094 65.945312 32.011719 65.8125 30.664062 C 65.671875 29.207031 64.671875 28.703125 63.347656 28.671875 C 62.589844 28.652344 61.828125 28.667969 60.855469 28.667969 L 60.855469 23.53125 C 67.046875 22.503906 71.324219 24.566406 71.722656 30.488281 C 71.886719 32.976562 71.863281 35.472656 72.023438 37.960938 C 72.09375 39.316406 72.296875 40.65625 72.628906 41.972656 Z M 72.628906 41.972656 "/>
</g>
</svg>
