<?xml version="1.0" encoding="UTF-8"?>
<svg xmlns="http://www.w3.org/2000/svg" xmlns:xlink="http://www.w3.org/1999/xlink" width="96px" height="100px" viewBox="0 0 96 96" version="1.1">
<g id="surface1">
<path style=" stroke:none;fill-rule:nonzero;fill:rgb(0%,0%,0%);fill-opacity:1;" d="M 47.925781 43.203125 C 44.609375 43.203125 42.222656 45.363281 42.222656 48.605469 C 42.222656 51.84375 44.910156 54.003906 48.222656 54.003906 C 50.226562 54.003906 51.988281 53.214844 53.082031 51.878906 L 50.785156 50.550781 C 50.179688 51.214844 49.257812 51.601562 48.222656 51.601562 C 46.785156 51.601562 45.5625 50.851562 45.109375 49.652344 L 53.519531 49.652344 C 53.585938 49.316406 53.625 48.96875 53.625 48.601562 C 53.625 45.363281 51.234375 43.203125 47.921875 43.203125 Z M 45.085938 47.554688 C 45.460938 46.355469 46.484375 45.605469 47.921875 45.605469 C 49.355469 45.605469 50.386719 46.355469 50.757812 47.554688 Z M 80.234375 43.203125 C 76.921875 43.203125 74.535156 45.363281 74.535156 48.605469 C 74.535156 51.84375 77.222656 54.003906 80.535156 54.003906 C 82.535156 54.003906 84.300781 53.214844 85.394531 51.878906 L 83.097656 50.550781 C 82.492188 51.214844 81.570312 51.601562 80.535156 51.601562 C 79.097656 51.601562 77.875 50.851562 77.421875 49.652344 L 85.828125 49.652344 C 85.894531 49.316406 85.933594 48.96875 85.933594 48.601562 C 85.933594 45.363281 83.546875 43.203125 80.234375 43.203125 Z M 77.398438 47.554688 C 77.773438 46.355469 78.800781 45.605469 80.234375 45.605469 C 81.671875 45.605469 82.699219 46.355469 83.070312 47.554688 Z M 65.6875 48.605469 C 65.6875 50.40625 66.863281 51.605469 68.6875 51.605469 C 69.925781 51.605469 70.851562 51.046875 71.328125 50.128906 L 73.636719 51.460938 C 72.679688 53.050781 70.890625 54.007812 68.691406 54.007812 C 65.375 54.007812 62.988281 51.847656 62.988281 48.605469 C 62.988281 45.363281 65.378906 43.203125 68.691406 43.203125 C 70.890625 43.203125 72.679688 44.160156 73.636719 45.753906 L 71.328125 47.082031 C 70.851562 46.167969 69.925781 45.605469 68.6875 45.605469 C 66.867188 45.605469 65.6875 46.804688 65.6875 48.605469 Z M 90.4375 39.902344 L 90.4375 53.707031 L 87.734375 53.707031 L 87.734375 39.902344 Z M 16.691406 38.402344 L 27.777344 57.605469 L 5.601562 57.605469 Z M 44.410156 39.902344 L 36.09375 54.304688 L 27.78125 39.902344 L 30.898438 39.902344 L 36.09375 48.90625 L 41.292969 39.902344 Z M 62.085938 43.503906 L 62.085938 46.410156 C 61.785156 46.324219 61.46875 46.265625 61.128906 46.265625 C 59.382812 46.265625 58.125 47.464844 58.125 49.265625 L 58.125 53.707031 L 55.425781 53.707031 L 55.425781 43.503906 L 58.125 43.503906 L 58.125 46.265625 C 58.125 44.742188 59.898438 43.503906 62.085938 43.503906 Z M 62.085938 43.503906 "/>
</g>
</svg>
